<?xml version="1.0" encoding="utf-8"?>
<!-- Generator: Adobe Illustrator 16.0.0, SVG Export Plug-In . SVG Version: 6.00 Build 0)  -->
<!DOCTYPE svg PUBLIC "-//W3C//DTD SVG 1.1//EN" "http://www.w3.org/Graphics/SVG/1.1/DTD/svg11.dtd">
<svg version="1.1" id="Layer_1" xmlns="http://www.w3.org/2000/svg" xmlns:xlink="http://www.w3.org/1999/xlink" x="0px" y="0px"
	 width="513.414px" height="160px" viewBox="0 0 513.414 160" enable-background="new 0 0 513.414 160" xml:space="preserve">
<rect fill="#FFFFFF" width="513.414" height="160"/>
<g>
	<g>
		<path fill="#4EBA6E" d="M107.688,103.172H97.523L71.812,70.729v32.443H61.047v-50.83h9.867l25.938,32.736V52.342h10.835V103.172z"
			/>
		<path fill="#4EBA6E" d="M150.703,71.1c3.664,3.512,5.531,8.148,5.531,13.9c0,5.836-1.867,10.547-5.531,14.131
			c-3.664,3.588-8.523,5.383-14.57,5.383c-6.063,0-10.915-1.795-14.657-5.383c-3.734-3.584-5.609-8.295-5.609-14.131
			c0-5.752,1.875-10.389,5.54-13.9c3.733-3.512,8.664-5.305,14.727-5.305C142.18,65.795,147.039,67.588,150.703,71.1z
			 M136.133,75.061c-5.915,0-9.946,3.961-9.946,9.939c0,6.063,4.031,10.242,9.946,10.242c5.898,0,9.859-4.18,9.859-10.242
			C145.992,79.021,142.031,75.061,136.133,75.061z"/>
		<path fill="#4EBA6E" d="M193.711,76.033c-4.633-0.973-8-1.492-10.094-1.492c-6.945,0-11.359,4.262-11.359,10.537
			c0,6.281,4.414,10.32,10.766,10.32c2.766,0,6.352-0.523,10.758-1.57l1.352,8.219c-4.484,1.49-8.75,2.242-12.859,2.242
			c-5.977,0-10.836-1.721-14.648-5.236c-3.742-3.506-5.609-8.217-5.609-14.053c0-5.83,1.867-10.459,5.68-13.9
			c3.813-3.512,8.75-5.234,14.953-5.234c4.258,0,8.445,0.676,12.484,2.02L193.711,76.033z"/>
		<path fill="#4EBA6E" d="M213.539,103.172h-10.391V50.096h10.391V103.172z"/>
		<path fill="#4EBA6E" d="M252.945,70.502c3.359,2.914,5.008,6.652,5.079,11.289c0,2.318-0.219,4.709-0.672,7.248h-25.039
			c1.422,4.117,4.859,6.203,10.164,6.203c2.539,0,6.805-0.594,12.711-1.869l1.422,8.15c-5.758,1.867-10.617,2.766-14.43,2.766
			c-6.648,0-11.734-1.797-15.398-5.305c-3.586-3.586-5.383-8.148-5.383-13.758c0-5.756,1.797-10.314,5.305-13.826
			c3.594-3.516,8.148-5.23,13.609-5.23C245.391,66.17,249.578,67.588,252.945,70.502z M231.867,81.639h16.891
			c-0.219-4.406-3.516-7.398-8.227-7.398C235.977,74.24,232.836,77.08,231.867,81.639z"/>
		<path fill="#4EBA6E" d="M302.078,67.963v34.529c0,11.961-7.398,19.813-20.929,19.813c-3.219,0-7.477-0.752-12.781-2.164
			l1.648-8.377c5.898,0.969,9.484,1.416,10.836,1.416c6.797,0,10.539-3.508,10.836-10.008c-2.914,0.297-6.43,0.445-10.688,0.445
			c-5.008,0-9.195-1.719-12.406-5.086c-3.219-3.438-4.867-7.922-4.867-13.453c0.078-11.584,6.656-18.838,17.945-18.838
			C291.086,66.092,299.243,67.811,302.078,67.963z M273.899,85.375c0,5.383,3.586,9.57,8.742,9.57c3.516,0,6.508-0.227,9.047-0.594
			V75.287c-3.211-0.301-5.977-0.449-8.375-0.449C277.032,74.838,273.899,78.35,273.899,85.375z"/>
		<path fill="#4EBA6E" d="M344.117,71.1c3.656,3.512,5.521,8.148,5.521,13.9c0,5.836-1.865,10.547-5.521,14.131
			c-3.664,3.588-8.523,5.383-14.578,5.383s-10.916-1.795-14.648-5.383c-3.742-3.584-5.609-8.295-5.609-14.131
			c0-5.752,1.867-10.389,5.529-13.9c3.736-3.512,8.674-5.305,14.729-5.305S340.453,67.588,344.117,71.1z M329.539,75.061
			c-5.906,0-9.945,3.961-9.945,9.939c0,6.063,4.039,10.242,9.945,10.242c5.898,0,9.867-4.18,9.867-10.242
			C339.406,79.021,335.438,75.061,329.539,75.061z"/>
		<path fill="#4EBA6E" d="M388.391,103.172l-7.555-21.084l-7.469,21.084h-9.945l-11.438-35.807h10.539l6.43,21.898l8-21.898h7.922
			l7.922,22.049l6.43-22.049h10.539l-11.359,35.807H388.391z"/>
		<path fill="#4EBA6E" d="M446.875,71.1c3.664,3.512,5.531,8.148,5.531,13.9c0,5.836-1.867,10.547-5.531,14.131
			c-3.664,3.588-8.523,5.383-14.578,5.383s-10.916-1.795-14.65-5.383c-3.74-3.584-5.607-8.295-5.607-14.131
			c0-5.752,1.867-10.389,5.529-13.9c3.744-3.512,8.674-5.305,14.729-5.305S443.211,67.588,446.875,71.1z M432.297,75.061
			c-5.906,0-9.939,3.961-9.939,9.939c0,6.063,4.033,10.242,9.939,10.242c5.904,0,9.867-4.18,9.867-10.242
			C442.164,79.021,438.201,75.061,432.297,75.061z"/>
	</g>
</g>
<path fill="#4EBA6E" d="M6.83,7v146.26h499.789V7H6.83z M501.619,148.26H11.83V12h489.789V148.26z"/>
</svg>
