<svg xmlns="http://www.w3.org/2000/svg" width="200" height="62.528" viewBox="156.708 48.676 200 62.528"><path fill="#2ecc71" d="M156.708 48.836h200v62.328h-200z"/><g fill="#FFF"><path d="M198.657 89.026h-3.96l-10.016-12.638v12.638h-4.194v-19.8h3.844l10.104 12.753V69.226h4.221l.001 19.8zM215.414 76.533c1.427 1.368 2.154 3.174 2.154 5.414 0 2.273-.727 4.109-2.154 5.505-1.427 1.397-3.32 2.097-5.676 2.097-2.362 0-4.252-.699-5.709-2.097-1.455-1.396-2.185-3.231-2.185-5.505 0-2.24.73-4.046 2.158-5.414 1.454-1.368 3.375-2.067 5.736-2.067 2.355 0 4.248.699 5.676 2.067zm-5.676 1.543c-2.304 0-3.875 1.543-3.875 3.871 0 2.362 1.57 3.99 3.875 3.99 2.297 0 3.84-1.628 3.84-3.99 0-2.328-1.543-3.871-3.84-3.871zM232.167 78.455c-1.804-.379-3.116-.581-3.932-.581-2.706 0-4.425 1.66-4.425 4.105 0 2.446 1.72 4.02 4.193 4.02 1.078 0 2.475-.203 4.191-.611l.526 3.201c-1.747.581-3.409.874-5.009.874-2.328 0-4.221-.671-5.706-2.04-1.458-1.365-2.185-3.201-2.185-5.475 0-2.271.728-4.074 2.212-5.414 1.485-1.368 3.409-2.039 5.825-2.039 1.659 0 3.29.263 4.863.787l-.553 3.173zM239.891 89.026h-4.047V68.351h4.047v20.675zM255.242 76.3c1.309 1.135 1.951 2.591 1.979 4.397 0 .903-.085 1.835-.262 2.824h-9.754c.554 1.604 1.893 2.416 3.959 2.416.989 0 2.651-.231 4.952-.729l.554 3.176c-2.243.727-4.136 1.077-5.621 1.077-2.59 0-4.571-.7-5.998-2.066-1.397-1.397-2.097-3.175-2.097-5.359 0-2.243.7-4.018 2.066-5.386 1.4-1.37 3.174-2.038 5.301-2.038 1.978 0 3.609.553 4.921 1.688zm-8.211 4.339h6.58c-.085-1.717-1.369-2.882-3.205-2.882-1.774-.001-2.998 1.105-3.375 2.882zM274.381 75.311v13.451c0 4.659-2.882 7.718-8.153 7.718-1.254 0-2.913-.293-4.979-.843l.642-3.264c2.298.378 3.694.552 4.222.552 2.647 0 4.105-1.366 4.221-3.898-1.135.116-2.505.174-4.164.174-1.95 0-3.581-.67-4.832-1.981-1.254-1.34-1.896-3.086-1.896-5.24.03-4.513 2.592-7.338 6.99-7.338 3.668-.06 6.845.61 7.949.669zm-10.977 6.783c0 2.097 1.397 3.729 3.405 3.729 1.37 0 2.535-.089 3.524-.231v-7.427a35.45 35.45 0 0 0-3.263-.175c-2.445-.001-3.666 1.367-3.666 4.104zM290.758 76.533c1.424 1.368 2.15 3.174 2.15 5.414 0 2.273-.727 4.109-2.15 5.505-1.428 1.397-3.32 2.097-5.68 2.097-2.358 0-4.252-.699-5.705-2.097-1.459-1.396-2.186-3.231-2.186-5.505 0-2.24.727-4.046 2.154-5.414 1.455-1.368 3.378-2.067 5.736-2.067 2.361 0 4.254.699 5.681 2.067zm-5.679 1.543c-2.301 0-3.873 1.543-3.873 3.871 0 2.362 1.572 3.99 3.873 3.99 2.298 0 3.844-1.628 3.844-3.99-.001-2.328-1.547-3.871-3.844-3.871zM308.004 89.026l-2.942-8.213-2.91 8.213h-3.874l-4.456-13.948h4.106l2.505 8.53 3.116-8.53h3.086l3.086 8.589 2.505-8.589h4.105l-4.425 13.948h-3.902zM330.787 76.533c1.428 1.368 2.155 3.174 2.155 5.414 0 2.273-.728 4.109-2.155 5.505-1.427 1.397-3.32 2.097-5.679 2.097s-4.252-.699-5.706-2.097c-1.458-1.396-2.186-3.231-2.186-5.505 0-2.24.728-4.046 2.154-5.414 1.459-1.368 3.379-2.067 5.737-2.067s4.253.699 5.68 2.067zm-5.679 1.543c-2.301 0-3.871 1.543-3.871 3.871 0 2.362 1.57 3.99 3.871 3.99 2.3 0 3.844-1.628 3.844-3.99 0-2.328-1.544-3.871-3.844-3.871z"/></g><path fill="#FFF" d="M159.368 51.563v56.975H354.06V51.563H159.368zm192.745 55.028H161.315v-53.08h190.797v53.08z"/></svg>